PathFileType	4	(x/y/z)	S08_P20_T19
DataRate	CameraRate	NumFrames	NumMarkers	Units	OrigDataRate	OrigDataStartFrame	OrigNumFrames
240	240	8	51	mm	240	296	394
Frame#	Time	Sternum			R.Acromium			L.Acromium			Top.Head			R.ASIS			L.ASIS			R.PSIS			L.PSIS			R.Great.Tro			L.Great.Tro			R.Iliac.Crest			L.Iliac.Crest			V.Sacral			R.Thigh.Upper.Post			R.Thigh.Lower.Ant			R.Thigh.Lower.Post			R.Thigh.Upper.Ant			R.Knee.Lat			R.Knee.Med			R.Shank.Upper.Post			R.Shank.Lower.Ant			R.Shank.Lower.Post			R.Shank.Upper.Ant			R.Ankle.Lat			R.Ankle.Med			R.Heel.Upper			R.Heel.Med			R.Heel.Lat			R.Toe.Lat			R.Toe.Med			R.Toe.Tip			L.Thigh.Upper.Post			L.Thigh.Lower.Ant			L.Thigh.Lower.Post			L.Thigh.Upper.Ant			L.Knee.Lat			L.Knee.Med			L.Shank.Upper.Post			L.Shank.Lower.Ant			L.Shank.Lower.Post			L.Shank.Upper.Ant			L.Ankle.Lat			L.Ankle.Med			L.Heel.Upper			L.Heel.Med			L.Heel.Lat			L.Toe.Lat			L.Toe.Med			L.Toe.Tip			Cervical.Spine			Back			
		X1	Y1	Z1	X2	Y2	Z2	X3	Y3	Z3	X4	Y4	Z4	X5	Y5	Z5	X6	Y6	Z6	X7	Y7	Z7	X8	Y8	Z8	X9	Y9	Z9	X10	Y10	Z10	X11	Y11	Z11	X12	Y12	Z12	X13	Y13	Z13	X14	Y14	Z14	X15	Y15	Z15	X16	Y16	Z16	X17	Y17	Z17	X18	Y18	Z18	X19	Y19	Z19	X20	Y20	Z20	X21	Y21	Z21	X22	Y22	Z22	X23	Y23	Z23	X24	Y24	Z24	X25	Y25	Z25	X26	Y26	Z26	X27	Y27	Z27	X28	Y28	Z28	X29	Y29	Z29	X30	Y30	Z30	X31	Y31	Z31	X32	Y32	Z32	X33	Y33	Z33	X34	Y34	Z34	X35	Y35	Z35	X36	Y36	Z36	X37	Y37	Z37	X38	Y38	Z38	X39	Y39	Z39	X40	Y40	Z40	X41	Y41	Z41	X42	Y42	Z42	X43	Y43	Z43	X44	Y44	Z44	X45	Y45	Z45	X46	Y46	Z46	X47	Y47	Z47	X48	Y48	Z48	X49	Y49	Z49	X50	Y50	Z50	X51	Y51	Z51	

296	1.2292	275.65	1239.7	297.33	164.58	1476	475.02	151.27	1506.6	140.47	170.91	1796.8	331.52	239.04	1027.7	404.32	241.67	1027.8	174.88	38.812	1051.7	330.84	44.195	1056.7	237.66	186.27	921.34	477.6	150.08	920.17	109.26	143.33	1095	451.96	150.65	1110.7	144.4	24.765	1013.9	282.11	254.52	727.1	466.6	365.71	669.8	433.92	297.86	648.69	446.81	327.07	754.57	453.66	363.29	565.78	430.55	343.89	563.66	303.21	258.18	405.41	439.75	299.38	327.56	422.27	235.99	331.99	435.18	322.15	401.51	429.25	184.34	173.56	405.31	222.43	175.77	329.31	133.01	145.54	354.91	139.86	115.75	329.54	128.57	122.65	390.26	NaN	NaN	NaN	321.03	76.588	335.68	383.09	82.298	386.46	120.24	712	127.72	200.49	619.08	157.2	132.24	623.2	148.42	191.81	704.66	131.29	138.23	521.67	171.32	137.46	523.88	296.69	59.528	345.95	172.21	116.03	253.27	200.02	48.91	275.26	189.14	121.25	327.8	181.69	51.373	103.41	211.24	70.382	105.92	298.29	-4.8262	77.279	258.74	8.6616	41.598	288.45	3.9857	50.239	225.18	180.47	40.072	194.8	197.84	39.992	310.74	261.9	56.91	263.34	90.499	1534.1	303.53	40.237	1254.5	305.76
297	1.2333	280.92	1239.4	297.34	169.93	1475.7	475.05	156.89	1506.5	140.52	176.4	1796.5	331.69	244.11	1027.6	404.35	246.68	1027.3	174.9	43.857	1051.5	330.94	49.257	1056.4	237.76	191.6	921.45	477.81	154.84	919.82	109.43	148.38	1094.9	451.98	155.78	1110.3	144.44	29.835	1013.7	282.26	259.93	727.17	466.5	371.05	669.92	433.65	303.23	648.8	446.62	332.41	754.67	453.47	368.93	566.05	430.36	348.86	563.57	303.33	267.62	402.98	439.94	310.85	326.29	422.41	247.37	329	435.36	331.69	400.76	429.29	199.89	169.21	405.56	237.89	172.46	329.55	149.31	139.78	355.1	156.94	110.22	329.76	145.43	116.8	390.44	NaN	NaN	NaN	339.15	75.95	335.99	401.05	83.325	386.78	123.35	712.07	127.86	203.04	618.69	157.33	134.88	623.26	148.42	195	704.33	131.41	139.99	521.6	171.32	139.19	523.76	296.71	60.498	346.14	172.2	116.66	253.25	200.06	49.646	275.5	189.16	122.13	327.76	181.71	51.546	103.55	211.36	70.705	105.97	298.39	-4.7078	77.392	258.81	8.6774	41.628	288.51	4.0379	50.348	225.24	180.5	40.059	194.81	197.91	39.853	310.77	261.97	56.725	263.34	95.997	1533.9	303.54	45.505	1254.4	305.59
298	1.2375	286.2	1239	297.35	175.28	1475.3	475.08	162.51	1506.3	140.57	181.88	1796.2	331.86	249.18	1027.4	404.4	251.7	1026.8	174.94	48.919	1051.2	331.05	54.334	1056	237.87	196.91	921.49	478.03	159.61	919.45	109.6	153.45	1094.8	452	160.93	1109.9	144.5	34.92	1013.4	282.4	265.21	727.16	466.38	376.27	669.88	433.4	308.46	648.8	446.43	337.67	754.64	453.31	374.45	566.21	430.2	353.7	563.33	303.46	277.06	400.51	440.15	322.29	325.05	422.54	258.76	326.03	435.53	341.17	400	429.35	215.51	164.99	405.79	253.39	169.28	329.78	165.7	134.19	355.26	174.1	104.9	329.95	162.41	111.14	390.58	NaN	NaN	NaN	357.22	75.466	336.23	418.9	84.454	387.04	126.48	712.14	128.01	205.59	618.29	157.45	137.52	623.31	148.42	198.2	704	131.52	141.76	521.52	171.3	140.96	523.65	296.73	61.463	346.34	172.21	117.28	253.23	200.1	50.365	275.73	189.21	123.02	327.73	181.73	51.724	103.69	211.49	71.022	106.02	298.49	-4.5881	77.505	258.89	8.6888	41.659	288.59	4.0906	50.459	225.3	180.53	40.046	194.82	197.98	39.715	310.8	262.04	56.538	263.34	101.51	1533.7	303.56	50.785	1254.3	305.43
299	1.2417	291.49	1238.5	297.36	180.65	1474.8	475.12	168.15	1506.1	140.62	187.36	1795.8	332.03	254.27	1027.2	404.46	256.74	1026.3	174.98	54	1050.9	331.17	59.429	1055.7	237.99	202.21	921.48	478.24	164.39	919.06	109.76	158.54	1094.6	452.04	166.08	1109.4	144.56	40.021	1013.1	282.55	270.39	727.05	466.25	381.37	669.7	433.19	313.54	648.69	446.26	342.84	754.48	453.15	379.85	566.25	430.07	358.41	562.94	303.62	286.47	398.04	440.38	333.7	323.86	422.67	270.16	323.1	435.72	350.59	399.24	429.41	231.19	160.9	406	268.92	166.25	329.98	182.17	128.81	355.39	191.33	99.804	330.11	179.46	105.7	390.7	NaN	NaN	NaN	375.2	75.148	336.41	436.63	85.699	387.25	129.63	712.21	128.15	208.16	617.89	157.55	140.18	623.36	148.43	201.41	703.65	131.62	143.55	521.45	171.29	142.75	523.54	296.74	62.421	346.54	172.24	117.92	253.22	200.13	51.065	275.95	189.29	123.91	327.7	181.74	51.906	103.83	211.63	71.332	106.08	298.6	-4.4682	77.616	258.97	8.6979	41.692	288.67	4.1436	50.572	225.37	180.55	40.033	194.83	198.04	39.576	310.84	262.12	56.346	263.34	107.03	1533.4	303.6	56.077	1254	305.28
300	1.2458	296.79	1238	297.38	186.03	1474.3	475.17	173.78	1505.8	140.67	192.84	1795.4	332.2	259.37	1027	404.53	261.8	1025.7	175.02	59.099	1050.6	331.3	64.541	1055.3	238.11	207.51	921.4	478.45	169.18	918.66	109.92	163.63	1094.4	452.08	171.24	1108.9	144.64	45.139	1012.8	282.71	275.45	726.85	466.11	386.34	669.37	433.01	318.49	648.46	446.1	347.92	754.2	453.02	385.13	566.17	429.97	363.01	562.41	303.79	295.86	395.57	440.61	345.04	322.71	422.8	281.54	320.22	435.9	359.94	398.48	429.47	246.9	156.97	406.19	284.44	163.38	330.15	198.69	123.64	355.51	208.58	94.949	330.25	196.57	100.47	390.8	NaN	NaN	NaN	393.07	75.008	336.52	454.22	87.072	387.37	132.81	712.27	128.28	210.74	617.47	157.64	142.84	623.41	148.44	204.62	703.29	131.71	145.34	521.38	171.27	144.57	523.42	296.75	63.371	346.75	172.28	118.55	253.21	200.15	51.744	276.17	189.42	124.81	327.67	181.75	52.092	103.96	211.78	71.635	106.14	298.7	-4.3486	77.726	259.07	8.7068	41.725	288.77	4.1968	50.687	225.45	180.58	40.019	194.83	198.11	39.438	310.88	262.21	56.151	263.34	112.56	1533.1	303.64	61.38	1253.8	305.14
301	1.25	302.1	1237.5	297.4	191.42	1473.8	475.23	179.42	1505.4	140.72	198.32	1795	332.37	264.49	1026.7	404.61	266.88	1025.1	175.08	64.218	1050.2	331.43	69.671	1054.8	238.23	212.79	921.26	478.67	173.99	918.23	110.07	168.75	1094.1	452.13	176.41	1108.4	144.73	50.277	1012.4	282.87	280.4	726.57	465.98	391.19	668.91	432.88	323.31	648.11	445.96	352.91	753.8	452.9	390.31	565.99	429.91	367.51	561.75	303.97	305.22	393.12	440.85	356.32	321.62	422.92	292.89	317.4	436.08	369.21	397.74	429.54	262.6	153.22	406.36	299.93	160.68	330.3	215.21	118.7	355.61	225.83	90.343	330.36	213.7	95.489	390.88	NaN	NaN	NaN	410.81	75.055	336.56	471.66	88.585	387.42	136.01	712.34	128.4	213.34	617.06	157.71	145.52	623.45	148.45	207.85	702.92	131.79	147.15	521.31	171.24	146.42	523.31	296.75	64.314	346.96	172.34	119.2	253.2	200.18	52.406	276.38	189.58	125.71	327.65	181.75	52.282	104.1	211.94	71.932	106.21	298.8	-4.23	77.833	259.18	8.7176	41.76	288.87	4.2501	50.803	225.55	180.6	40.005	194.84	198.19	39.302	310.93	262.31	55.951	263.34	118.09	1532.7	303.68	66.696	1253.4	305
302	1.2542	307.43	1236.9	297.43	196.82	1473.2	475.29	185.07	1505	140.78	203.79	1794.5	332.55	269.63	1026.4	404.69	272	1024.5	175.14	69.357	1049.8	331.56	74.82	1054.4	238.36	218.07	921.05	478.89	178.82	917.78	110.23	173.87	1093.8	452.2	181.59	1107.8	144.82	55.436	1011.9	283.03	285.25	726.2	465.85	395.94	668.31	432.78	328.01	647.66	445.87	357.82	753.29	452.81	395.39	565.7	429.88	371.92	560.96	304.17	314.55	390.7	441.11	367.52	320.6	423.03	304.21	314.67	436.27	378.4	397.01	429.62	278.29	149.65	406.51	315.37	158.15	330.41	231.72	114	355.7	243.06	85.991	330.45	230.84	90.75	390.95	NaN	NaN	NaN	428.39	75.295	336.51	488.92	90.248	387.37	139.25	712.41	128.51	215.96	616.63	157.78	148.22	623.49	148.47	211.09	702.54	131.86	148.98	521.24	171.22	148.32	523.2	296.76	65.253	347.17	172.43	119.85	253.2	200.19	53.056	276.58	189.77	126.62	327.63	181.76	52.475	104.23	212.12	72.224	106.29	298.91	-4.1127	77.939	259.3	8.7319	41.797	288.99	4.3031	50.921	225.65	180.62	39.99	194.84	198.26	39.168	310.97	262.41	55.746	263.34	123.64	1532.3	303.74	72.022	1253	304.88
303	1.2583	312.76	1236.2	297.46	202.23	1472.5	475.36	190.72	1504.6	140.85	209.26	1793.9	332.73	274.78	1026	404.78	277.14	1023.9	175.2	74.516	1049.4	331.71	79.988	1053.8	238.49	223.34	920.79	479.1	183.67	917.31	110.37	179.02	1093.5	452.27	186.79	1107.2	144.93	60.615	1011.4	283.2	290.01	725.73	465.75	400.59	667.59	432.73	332.6	647.11	445.81	362.65	752.66	452.74	400.39	565.31	429.88	376.25	560.06	304.38	323.83	388.32	441.36	378.62	319.65	423.13	315.48	312.02	436.47	387.49	396.31	429.69	293.93	146.27	406.65	330.72	155.82	330.5	248.17	109.55	355.78	260.22	81.899	330.52	247.93	86.263	391.01	NaN	NaN	NaN	445.79	75.734	336.39	505.97	92.068	387.23	142.53	712.48	128.61	218.6	616.2	157.83	150.95	623.52	148.49	214.35	702.15	131.92	150.83	521.18	171.19	150.25	523.08	296.76	66.195	347.39	172.53	120.5	253.21	200.21	53.702	276.79	189.99	127.54	327.62	181.76	52.672	104.37	212.31	72.513	106.37	299.03	-3.9966	78.044	259.44	8.7501	41.835	289.12	4.3557	51.041	225.77	180.64	39.973	194.84	198.34	39.038	311	262.51	55.536	263.34	129.18	1531.9	303.8	77.36	1252.6	304.76
